<?xml version="1.0" standalone="no"?>
<!DOCTYPE svg PUBLIC "-//W3C//DTD SVG 1.1//EN" "http://www.w3.org/Graphics/SVG/1.1/DTD/svg11.dtd" >
<svg xmlns="http://www.w3.org/2000/svg">
<metadata></metadata>
<defs>
<font id="thrust_regular" horiz-adv-x="1024" >
<font-face units-per-em="2048" ascent="1638" descent="-410" />
<missing-glyph horiz-adv-x="500" />
<glyph horiz-adv-x="0" />
<glyph horiz-adv-x="682" />
<glyph unicode=" " />
<glyph unicode="!" horiz-adv-x="768" d="M0 0v256h256h256v-256h-256h-256zM0 512v256v256v256h256h256v-256v-256v-256h-256h-256z" />
<glyph unicode="&#x22;" horiz-adv-x="1536" d="M0 512v256v256v256h256h256v-256v-256v-256h-256h-256zM768 512v256v256v256h256h256v-256v-256v-256h-256h-256z" />
<glyph unicode="#" horiz-adv-x="2048" d="M0 256v256h256v256h-256v256h256v256h256h256v-256h256v256h256h256v-256h256v-256h-256v-256h256v-256h-256v-256h-256h-256v256h-256v-256h-256h-256v256h-256zM768 512h256v256h-256v-256z" />
<glyph unicode="$" horiz-adv-x="2048" d="M0 512v256v256v256h256h256h256h256h256h256v-256h-256h-256v-256h256h256h256v-256v-256v-256h-256h-256h-256h-256h-256h-256v256h256h256v256h-256h-256h-256zM512 768h256v256h-256v-256zM1024 256h256v256h-256v-256z" />
<glyph unicode="%" horiz-adv-x="1792" d="M0 0v256h256v256h256v256h256v256h256v256h256h256v-256h-256v-256h-256v-256h-256v-256h-256v-256h-256h-256zM0 1024v256h256h256v-256h-256h-256zM1024 0v256h256h256v-256h-256h-256z" />
<glyph unicode="&#x26;" horiz-adv-x="2048" d="M0 0v256v256v256v256v256h256h256h256h256v-256v-256h256v256h256h256v-256h-256v-256v-256h256v-256h-256h-256h-256h-256h-256h-256h-256zM512 256h256h256v256h-256h-256v-256zM512 768h256v256h-256v-256z" />
<glyph unicode="'" horiz-adv-x="768" d="M0 512v256v256v256h256h256v-256v-256v-256h-256h-256z" />
<glyph unicode="(" d="M0 256v256v256v256h256v256h256h256v-256h-256v-256v-256v-256h256v-256h-256h-256v256h-256z" />
<glyph unicode=")" d="M0 0v256h256v256v256v256h-256v256h256h256v-256h256v-256v-256v-256h-256v-256h-256h-256z" />
<glyph unicode="*" horiz-adv-x="2304" d="M0 512v256h512v256h-256v256h512v-256h512v256h512v-256h-256v-256h512v-256h-512v-256h256v-256h-512v256h-512v-256h-512v256h256v256h-512z" />
<glyph unicode="+" horiz-adv-x="1280" d="M0 512v256h256v256h256h256v-256h256v-256h-256v-256h-256h-256v256h-256z" />
<glyph unicode="," d="M0 0h256v512h512v-512h-256v-256h-512v256z" />
<glyph unicode="-" horiz-adv-x="1280" d="M0 512v256h256h256h512v-256h-512h-256h-256z" />
<glyph unicode="." horiz-adv-x="768" d="M0 0v256v256h256h256v-256v-256h-256h-256z" />
<glyph unicode="/" horiz-adv-x="1792" d="M0 0v256h256v256h256v256h256v256h256v256h256h256v-256h-256v-256h-256v-256h-256v-256h-256v-256h-256h-256z" />
<glyph unicode="0" horiz-adv-x="2048" d="M0 0v256v256v256v256v256h256h256h256h256h256h256h256v-256v-256v-256v-256v-256h-256h-256h-256h-256h-256h-256h-256zM512 256h256v256h256h256v256v256h-256h-256h-256v-256v-256v-256z" />
<glyph unicode="1" horiz-adv-x="1792" d="M0 0v256v256h256h256v256v256h-256h-256v256h256h256h256h256v-256v-256v-256h256h256v-256v-256h-256h-256h-256h-256h-256h-256z" />
<glyph unicode="2" horiz-adv-x="2048" d="M0 0v256v256v256h256h256h256h256h256v256h-256h-256h-256h-256v256h256h256h256h256h256h256v-256v-256v-256h-256h-256h-256h-256v-256h256h256h256h256v-256h-256h-256h-256h-256h-256h-256h-256z" />
<glyph unicode="3" horiz-adv-x="2048" d="M0 0v256h256h256h256v256h-256h-256v256h256h256v256h-256h-256v256h256h256h256h256v-256v-256h256h256v-256v-256v-256h-256h-256h-256h-256h-256h-256h-256z" />
<glyph unicode="4" horiz-adv-x="2048" d="M0 512v256v256v256h256h256v-256v-256h256h256v256h256h256h256v-256v-256v-256v-256h-256h-256h-256v256v256h-256h-256h-256h-256z" />
<glyph unicode="5" horiz-adv-x="2048" d="M0 0v256h256h256h256h256v256h-256h-256h-256h-256v256v256v256h256h256h256h256h256v-256h-256h-256h-256v-256h256h256h256h256h256v-256v-256v-256h-256h-256h-256h-256h-256h-256h-256z" />
<glyph unicode="6" horiz-adv-x="2048" d="M0 0v256v256v256v256v256h256h256h256h256v-256h-256h-256v-256h256h256h256h256h256v-256v-256v-256h-256h-256h-256h-256h-256h-256h-256zM512 256h256h256v256h-256h-256v-256z" />
<glyph unicode="7" horiz-adv-x="2048" d="M0 1024v256h256h256h256h256h256h256h256v-256v-256v-256h-256h-256h-256v-256v-256h-256h-256h-256v256v256v256h256h256h256h256v256h-256h-256h-256h-256h-256z" />
<glyph unicode="8" horiz-adv-x="2048" d="M0 0v256v256v256h256v256v256h256h256h256h256h256v-256v-256h256v-256v-256v-256h-256h-256h-256h-256h-256h-256h-256zM768 256h256v256h-256v-256zM768 768h256v256h-256v-256z" />
<glyph unicode="9" horiz-adv-x="2048" d="M0 512v256v256v256h256h256h256h256h256h256h256v-256v-256v-256v-256v-256h-256h-256h-256h-256v256v256h-256h-256h-256zM512 768h256h256h256v256h-256h-256h-256v-256z" />
<glyph unicode=":" horiz-adv-x="768" d="M0 0v256v256h256h256v-256v-256h-256h-256zM0 768v256v256h256h256v-256v-256h-256h-256z" />
<glyph unicode=";" d="M0 0h256v256v256h256h256v-256v-256h-256v-256h-256h-256v256zM256 768v256v256h256h256v-256v-256h-256h-256z" />
<glyph unicode="&#x3c;" horiz-adv-x="1280" d="M0 512v256h256v256h256v256h256h256v-256h-256v-256h-256v-256h256v-256h256v-256h-256h-256v256h-256v256h-256z" />
<glyph unicode="=" horiz-adv-x="1536" d="M0 256v256h256h256h256h256h256v-256h-256h-256h-256h-256h-256zM0 768v256h256h256h256h256h256v-256h-256h-256h-256h-256h-256z" />
<glyph unicode="&#x3e;" horiz-adv-x="1280" d="M0 0v256h256v256h256v256h-256v256h-256v256h256h256v-256h256v-256h256v-256h-256v-256h-256v-256h-256h-256z" />
<glyph unicode="?" horiz-adv-x="1792" d="M0 1024v256h256h256h256h256h256h256v-768h-256h-256h-256h-256h-256v256h256h256h256v256h-256h-256h-256h-256zM256 0v256h256h256v-256h-256h-256z" />
<glyph unicode="@" horiz-adv-x="2048" d="M0 0v256v256v256v256v256h256h256h256h256h256h256h256v-256v-256v-256h-256h-256h-256h-256v256v256h-256v-256v-256v-256h256h256h256h256h256v-256h-256h-256h-256h-256h-256h-256h-256zM1024 768h256v256h-256v-256z" />
<glyph unicode="A" horiz-adv-x="2048" d="M0 0v256v256h256v256h256v256h256v256h256h256h256h256v-256v-256v-256v-256v-256h-256h-256v256h-256h-256h-256v-256h-256h-256zM768 512h256h256v256v256h-256v-256h-256v-256z" />
<glyph unicode="B" horiz-adv-x="2048" d="M0 0v256v256v256v256v256h256h256h256h256h256h256v-256v-256h256v-256v-256v-256h-256h-256h-256h-256h-256h-256h-256zM512 256h256h256h256v256h-256h-256h-256v-256zM512 768h256h256v256h-256h-256v-256z" />
<glyph unicode="C" horiz-adv-x="2048" d="M0 0v256v256v256v256v256h256h256h256h256h256h256h256v-256v-256h-256h-256v256h-256h-256h-256v-256v-256v-256h256h256h256h256h256v-256h-256h-256h-256h-256h-256h-256h-256z" />
<glyph unicode="D" horiz-adv-x="2048" d="M0 0v256v256v256v256v256h256h256h256h256h256h256h256v-256v-256v-256h-256v-256h-256v-256h-256h-256h-256h-256h-256zM512 256h256h256v256h256v256v256h-256h-256h-256v-256v-256v-256z" />
<glyph unicode="E" horiz-adv-x="2048" d="M0 0v256v256v256v256v256h256h256h256h256h256h256h256v-256h-256h-256h-256h-256h-256v-256h256h256h256v-256h-256h-256h-256v-256h256h256h256h256h256v-256h-256h-256h-256h-256h-256h-256h-256z" />
<glyph unicode="F" horiz-adv-x="2048" d="M0 0v256v256v256v256v256h256h256h256h256h256h256h256v-256h-256h-256h-256h-256h-256v-256h256h256h256v-256h-256h-256h-256v-256v-256h-256h-256z" />
<glyph unicode="G" horiz-adv-x="2048" d="M0 0v256v256v256v256v256h256h256h256h256h256v-256h-256h-256h-256v-256v-256v-256h256h256h256v256h-256h-256v256h256h256h256h256v-256v-256v-256h-256h-256h-256h-256h-256h-256h-256z" />
<glyph unicode="H" horiz-adv-x="2048" d="M0 0v256v256v256v256v256h256h256v-256v-256h256h256h256v256v256h256h256v-256v-256v-256v-256v-256h-256h-256v256v256h-256h-256h-256v-256v-256h-256h-256z" />
<glyph unicode="I" horiz-adv-x="1792" d="M0 0v256h256h256v256v256v256h-256h-256v256h256h256h256h256h256h256v-256h-256h-256v-256v-256v-256h256h256v-256h-256h-256h-256h-256h-256h-256z" />
<glyph unicode="J" horiz-adv-x="2048" d="M0 0v256v256h256h256v-256h256v256v256v256h-256h-256v256h256h256h256h256h256h256v-256h-256h-256v-256v-256v-256v-256h-256h-256h-256h-256h-256z" />
<glyph unicode="K" horiz-adv-x="2048" d="M0 0v256v256v256v256v256h256h256v-256v-256h256v256h256v256h256h256v-256h-256v-256h256h256v-256v-256v-256h-256h-256v256v256h-256h-256h-256v-256v-256h-256h-256z" />
<glyph unicode="L" horiz-adv-x="2048" d="M0 0v256v256v256v256v256h256h256v-256v-256v-256v-256h256h256h256h256h256v-256h-256h-256h-256h-256h-256h-256h-256z" />
<glyph unicode="M" horiz-adv-x="2048" d="M0 0v256v256v256v256v256h256h256h256h256h256h256h256v-256v-256v-256v-256v-256h-256h-256v256v256v256v256h-256v-256v-256h-256v256v256h-256v-256v-256v-256v-256h-256h-256z" />
<glyph unicode="N" horiz-adv-x="2048" d="M0 0v256v256v256v256v256h256h256h256h256v-256v-256v-256v-256h256v256v256v256v256h256h256v-256v-256v-256v-256v-256h-256h-256h-256h-256v256v256v256v256h-256v-256v-256v-256v-256h-256h-256z" />
<glyph unicode="O" horiz-adv-x="2048" d="M0 0v256v256v256v256v256h256h256h256h256h256h256h256v-256v-256v-256v-256v-256h-256h-256h-256h-256h-256h-256h-256zM512 256h256h256h256v256v256v256h-256h-256h-256v-256v-256v-256z" />
<glyph unicode="P" horiz-adv-x="2048" d="M0 0v256v256v256v256v256h256h256h256h256h256h256h256v-256v-256v-256v-256h-256h-256h-256h-256h-256v-256h-256h-256zM512 512h256h256h256v256v256h-256h-256h-256v-256v-256z" />
<glyph unicode="Q" horiz-adv-x="2048" d="M0 0v256v256v256v256v256h256h256h256h256h256h256h256v-256v-256v-256h-256v-256h256v-256h-256h-256h-256h-256h-256h-256h-256zM512 256h256h256v256h256v256v256h-256h-256h-256v-256v-256v-256z" />
<glyph unicode="R" horiz-adv-x="2048" d="M0 0v256v256v256v256v256h256h256h256h256h256h256h256v-256v-256v-256h-256v-256h256v-256h-256h-256v256h-256v256h-256h-256v-256v-256h-256h-256zM512 768h256h256h256v256h-256h-256h-256v-256z" />
<glyph unicode="S" horiz-adv-x="2048" d="M0 0v256h256h256h256h256h256v256h-256h-256h-256h-256h-256v256v256v256h256h256h256h256h256h256h256v-256h-256h-256h-256h-256h-256v-256h256h256h256h256h256v-256v-256v-256h-256h-256h-256h-256h-256h-256h-256z" />
<glyph unicode="T" horiz-adv-x="2048" d="M0 1024v256h256h256h256h256h256h256h256v-256h-256h-256h-256v-256v-256v-256v-256h-256h-256v256v256v256v256h-256h-256z" />
<glyph unicode="U" horiz-adv-x="2048" d="M0 0v256v256v256v256v256h256h256v-256v-256v-256v-256h256h256h256v256v256v256v256h256h256v-256v-256v-256v-256v-256h-256h-256h-256h-256h-256h-256h-256z" />
<glyph unicode="V" horiz-adv-x="2048" d="M0 0v256v256v256v256v256h256h256v-256v-256v-256v-256h256v256h256v256h256v256v256h256h256v-256v-256h-256v-256h-256v-256h-256v-256h-256h-256h-256h-256z" />
<glyph unicode="W" horiz-adv-x="2048" d="M0 0v256v256v256v256v256h256h256v-256v-256v-256v-256h256v256v256h256v-256v-256h256v256v256v256v256h256h256v-256v-256v-256v-256v-256h-256h-256h-256h-256h-256h-256h-256z" />
<glyph unicode="X" horiz-adv-x="2048" d="M0 0v256h256v256h256v256h-256v256h-256v256h256h256v-256h256v-256h256v256h256v256h256h256v-256h-256v-256h-256v-256h256v-256h256v-256h-256h-256v256h-256v256h-256v-256h-256v-256h-256h-256z" />
<glyph unicode="Y" horiz-adv-x="2048" d="M0 512v256v256v256h256h256v-256v-256h256h256h256v256v256h256h256v-256v-256v-256v-256v-256h-256h-256h-256h-256h-256h-256v256h256h256h256h256v256h-256h-256h-256h-256h-256z" />
<glyph unicode="Z" horiz-adv-x="2048" d="M0 0v256v256v256h256h256h256h256h256v256h-256h-256h-256h-256h-256v256h256h256h256h256h256h256h256v-256v-256v-256h-256h-256h-256h-256h-256v-256h256h256h256h256h256v-256h-256h-256h-256h-256h-256h-256h-256z" />
<glyph unicode="[" d="M0 0v256v256v256v256v256h256h256h256v-256h-256v-256v-256v-256h256v-256h-256h-256h-256z" />
<glyph unicode="\" horiz-adv-x="1792" d="M0 1024v256h256h256v-256h256v-256h256v-256h256v-256h256v-256h-256h-256v256h-256v256h-256v256h-256v256h-256z" />
<glyph unicode="]" d="M0 0v256h256v256v256v256h-256v256h256h256h256v-256v-256v-256v-256v-256h-256h-256h-256z" />
<glyph unicode="^" />
<glyph unicode="_" horiz-adv-x="2048" d="M0 0v256h256h256h256h256h256h256h256v-256h-256h-256h-256h-256h-256h-256h-256z" />
<glyph unicode="`" horiz-adv-x="768" d="M0 512v256v256v256h256h256v-256v-256v-256h-256h-256z" />
<glyph unicode="a" horiz-adv-x="2048" d="M0 0v256v256h256v256h256v256h256v256h256h256h256h256v-256v-256v-256v-256v-256h-256h-256v256h-256h-256h-256v-256h-256h-256zM768 512h256h256v256v256h-256v-256h-256v-256z" />
<glyph unicode="b" horiz-adv-x="2048" d="M0 0v256v256v256v256v256h256h256h256h256h256h256v-256v-256h256v-256v-256v-256h-256h-256h-256h-256h-256h-256h-256zM512 256h256h256h256v256h-256h-256h-256v-256zM512 768h256h256v256h-256h-256v-256z" />
<glyph unicode="c" horiz-adv-x="2048" d="M0 0v256v256v256v256v256h256h256h256h256h256h256h256v-256v-256h-256h-256v256h-256h-256h-256v-256v-256v-256h256h256h256h256h256v-256h-256h-256h-256h-256h-256h-256h-256z" />
<glyph unicode="d" horiz-adv-x="2048" d="M0 0v256v256v256v256v256h256h256h256h256h256h256h256v-256v-256v-256h-256v-256h-256v-256h-256h-256h-256h-256h-256zM512 256h256h256v256h256v256v256h-256h-256h-256v-256v-256v-256z" />
<glyph unicode="e" horiz-adv-x="2048" d="M0 0v256v256v256v256v256h256h256h256h256h256h256h256v-256h-256h-256h-256h-256h-256v-256h256h256h256v-256h-256h-256h-256v-256h256h256h256h256h256v-256h-256h-256h-256h-256h-256h-256h-256z" />
<glyph unicode="f" horiz-adv-x="2048" d="M0 0v256v256v256v256v256h256h256h256h256h256h256h256v-256h-256h-256h-256h-256h-256v-256h256h256h256v-256h-256h-256h-256v-256v-256h-256h-256z" />
<glyph unicode="g" horiz-adv-x="2048" d="M0 0v256v256v256v256v256h256h256h256h256h256v-256h-256h-256h-256v-256v-256v-256h256h256h256v256h-256h-256v256h256h256h256h256v-256v-256v-256h-256h-256h-256h-256h-256h-256h-256z" />
<glyph unicode="h" horiz-adv-x="2048" d="M0 0v256v256v256v256v256h256h256v-256v-256h256h256h256v256v256h256h256v-256v-256v-256v-256v-256h-256h-256v256v256h-256h-256h-256v-256v-256h-256h-256z" />
<glyph unicode="i" horiz-adv-x="1792" d="M0 0v256h256h256v256v256v256h-256h-256v256h256h256h256h256h256h256v-256h-256h-256v-256v-256v-256h256h256v-256h-256h-256h-256h-256h-256h-256z" />
<glyph unicode="j" horiz-adv-x="2048" d="M0 0v256v256h256h256v-256h256v256v256v256h-256h-256v256h256h256h256h256h256h256v-256h-256h-256v-256v-256v-256v-256h-256h-256h-256h-256h-256z" />
<glyph unicode="k" horiz-adv-x="2048" d="M0 0v256v256v256v256v256h256h256v-256v-256h256v256h256v256h256h256v-256h-256v-256h256h256v-256v-256v-256h-256h-256v256v256h-256h-256h-256v-256v-256h-256h-256z" />
<glyph unicode="l" horiz-adv-x="2048" d="M0 0v256v256v256v256v256h256h256v-256v-256v-256v-256h256h256h256h256h256v-256h-256h-256h-256h-256h-256h-256h-256z" />
<glyph unicode="m" horiz-adv-x="2048" d="M0 0v256v256v256v256v256h256h256h256h256h256h256h256v-256v-256v-256v-256v-256h-256h-256v256v256v256v256h-256v-256v-256h-256v256v256h-256v-256v-256v-256v-256h-256h-256z" />
<glyph unicode="n" horiz-adv-x="2048" d="M0 0v256v256v256v256v256h256h256h256h256v-256v-256v-256v-256h256v256v256v256v256h256h256v-256v-256v-256v-256v-256h-256h-256h-256h-256v256v256v256v256h-256v-256v-256v-256v-256h-256h-256z" />
<glyph unicode="o" horiz-adv-x="2048" d="M0 0v256v256v256v256v256h256h256h256h256h256h256h256v-256v-256v-256v-256v-256h-256h-256h-256h-256h-256h-256h-256zM512 256h256h256h256v256v256v256h-256h-256h-256v-256v-256v-256z" />
<glyph unicode="p" horiz-adv-x="2048" d="M0 0v256v256v256v256v256h256h256h256h256h256h256h256v-256v-256v-256v-256h-256h-256h-256h-256h-256v-256h-256h-256zM512 512h256h256h256v256v256h-256h-256h-256v-256v-256z" />
<glyph unicode="q" horiz-adv-x="2048" d="M0 0v256v256v256v256v256h256h256h256h256h256h256h256v-256v-256v-256h-256v-256h256v-256h-256h-256h-256h-256h-256h-256h-256zM512 256h256h256v256h256v256v256h-256h-256h-256v-256v-256v-256z" />
<glyph unicode="r" horiz-adv-x="2048" d="M0 0v256v256v256v256v256h256h256h256h256h256h256h256v-256v-256v-256h-256v-256h256v-256h-256h-256v256h-256v256h-256h-256v-256v-256h-256h-256zM512 768h256h256h256v256h-256h-256h-256v-256z" />
<glyph unicode="s" horiz-adv-x="2048" d="M0 0v256h256h256h256h256h256v256h-256h-256h-256h-256h-256v256v256v256h256h256h256h256h256h256h256v-256h-256h-256h-256h-256h-256v-256h256h256h256h256h256v-256v-256v-256h-256h-256h-256h-256h-256h-256h-256z" />
<glyph unicode="t" horiz-adv-x="2048" d="M0 1024v256h256h256h256h256h256h256h256v-256h-256h-256h-256v-256v-256v-256v-256h-256h-256v256v256v256v256h-256h-256z" />
<glyph unicode="u" horiz-adv-x="2048" d="M0 0v256v256v256v256v256h256h256v-256v-256v-256v-256h256h256h256v256v256v256v256h256h256v-256v-256v-256v-256v-256h-256h-256h-256h-256h-256h-256h-256z" />
<glyph unicode="v" horiz-adv-x="2048" d="M0 0v256v256v256v256v256h256h256v-256v-256v-256v-256h256v256h256v256h256v256v256h256h256v-256v-256h-256v-256h-256v-256h-256v-256h-256h-256h-256h-256z" />
<glyph unicode="w" horiz-adv-x="2048" d="M0 0v256v256v256v256v256h256h256v-256v-256v-256v-256h256v256v256h256v-256v-256h256v256v256v256v256h256h256v-256v-256v-256v-256v-256h-256h-256h-256h-256h-256h-256h-256z" />
<glyph unicode="x" horiz-adv-x="2048" d="M0 0v256h256v256h256v256h-256v256h-256v256h256h256v-256h256v-256h256v256h256v256h256h256v-256h-256v-256h-256v-256h256v-256h256v-256h-256h-256v256h-256v256h-256v-256h-256v-256h-256h-256z" />
<glyph unicode="y" horiz-adv-x="2048" d="M0 512v256v256v256h256h256v-256v-256h256h256h256v256v256h256h256v-256v-256v-256v-256v-256h-256h-256h-256h-256h-256h-256v256h256h256h256h256v256h-256h-256h-256h-256h-256z" />
<glyph unicode="z" horiz-adv-x="2048" d="M0 0v256v256v256h256h256h256h256h256v256h-256h-256h-256h-256h-256v256h256h256h256h256h256h256h256v-256v-256v-256h-256h-256h-256h-256h-256v-256h256h256h256h256h256v-256h-256h-256h-256h-256h-256h-256h-256z" />
<glyph unicode="{" />
<glyph unicode="|" />
<glyph unicode="}" />
<glyph unicode="~" />
<glyph unicode="&#xa0;" />
<glyph unicode="&#xa1;" />
<glyph unicode="&#xa2;" />
<glyph unicode="&#xa3;" />
<glyph unicode="&#xa4;" />
<glyph unicode="&#xa5;" />
<glyph unicode="&#xa6;" />
<glyph unicode="&#xa7;" />
<glyph unicode="&#xa8;" />
<glyph unicode="&#xa9;" />
<glyph unicode="&#xaa;" />
<glyph unicode="&#xab;" d="M0 512v256h256v256h256v256h256v-256v-256v-256v-256v-256h-256v256h-256v256h-256z" />
<glyph unicode="&#xac;" />
<glyph unicode="&#xad;" horiz-adv-x="1280" d="M0 512v256h256h256h512v-256h-512h-256h-256z" />
<glyph unicode="&#xae;" />
<glyph unicode="&#xaf;" />
<glyph unicode="&#xb0;" />
<glyph unicode="&#xb1;" />
<glyph unicode="&#xb2;" />
<glyph unicode="&#xb3;" />
<glyph unicode="&#xb4;" horiz-adv-x="768" d="M0 512v256v256v256h256h256v-256v-256v-256h-256h-256z" />
<glyph unicode="&#xb5;" />
<glyph unicode="&#xb6;" />
<glyph unicode="&#xb7;" />
<glyph unicode="&#xb8;" />
<glyph unicode="&#xb9;" />
<glyph unicode="&#xba;" />
<glyph unicode="&#xbb;" d="M0 0v256v256v256v256v256h256v-256h256v-256h256v-256h-256v-256h-256v-256h-256z" />
<glyph unicode="&#xbc;" />
<glyph unicode="&#xbd;" />
<glyph unicode="&#xbe;" />
<glyph unicode="&#xbf;" />
<glyph unicode="&#xc0;" />
<glyph unicode="&#xc1;" />
<glyph unicode="&#xc2;" />
<glyph unicode="&#xc3;" />
<glyph unicode="&#xc4;" horiz-adv-x="2048" d="M0 0v256v256h256v256h256v256h256v256h256h256h256h256v-256v-256v-256v-256v-256h-256h-256v256h-256h-256h-256v-256h-256h-256zM768 512h256h256v256v256h-256v-256h-256v-256z" />
<glyph unicode="&#xc5;" />
<glyph unicode="&#xc6;" />
<glyph unicode="&#xc7;" />
<glyph unicode="&#xc8;" />
<glyph unicode="&#xc9;" />
<glyph unicode="&#xca;" />
<glyph unicode="&#xcb;" />
<glyph unicode="&#xcc;" />
<glyph unicode="&#xcd;" />
<glyph unicode="&#xce;" />
<glyph unicode="&#xcf;" />
<glyph unicode="&#xd0;" />
<glyph unicode="&#xd1;" />
<glyph unicode="&#xd2;" />
<glyph unicode="&#xd3;" />
<glyph unicode="&#xd4;" />
<glyph unicode="&#xd5;" />
<glyph unicode="&#xd6;" horiz-adv-x="2048" d="M0 0v256v256v256v256v256h256h256h256h256h256h256h256v-256v-256v-256v-256v-256h-256h-256h-256h-256h-256h-256h-256zM512 256h256h256h256v256v256v256h-256h-256h-256v-256v-256v-256z" />
<glyph unicode="&#xd7;" />
<glyph unicode="&#xd8;" />
<glyph unicode="&#xd9;" />
<glyph unicode="&#xda;" />
<glyph unicode="&#xdb;" />
<glyph unicode="&#xdc;" horiz-adv-x="2048" d="M0 0v256v256v256v256v256h256h256v-256v-256v-256v-256h256h256h256v256v256v256v256h256h256v-256v-256v-256v-256v-256h-256h-256h-256h-256h-256h-256h-256z" />
<glyph unicode="&#xdd;" />
<glyph unicode="&#xde;" />
<glyph unicode="&#xdf;" />
<glyph unicode="&#xe0;" />
<glyph unicode="&#xe1;" />
<glyph unicode="&#xe2;" />
<glyph unicode="&#xe3;" />
<glyph unicode="&#xe4;" horiz-adv-x="2048" d="M0 0v256v256h256v256h256v256h256v256h256h256h256h256v-256v-256v-256v-256v-256h-256h-256v256h-256h-256h-256v-256h-256h-256zM768 512h256h256v256v256h-256v-256h-256v-256z" />
<glyph unicode="&#xe5;" />
<glyph unicode="&#xe6;" />
<glyph unicode="&#xe7;" />
<glyph unicode="&#xe8;" />
<glyph unicode="&#xe9;" />
<glyph unicode="&#xea;" />
<glyph unicode="&#xeb;" />
<glyph unicode="&#xec;" />
<glyph unicode="&#xed;" />
<glyph unicode="&#xee;" />
<glyph unicode="&#xef;" />
<glyph unicode="&#xf0;" />
<glyph unicode="&#xf1;" />
<glyph unicode="&#xf2;" />
<glyph unicode="&#xf3;" />
<glyph unicode="&#xf4;" />
<glyph unicode="&#xf5;" />
<glyph unicode="&#xf6;" horiz-adv-x="2048" d="M0 0v256v256v256v256v256h256h256h256h256h256h256h256v-256v-256v-256v-256v-256h-256h-256h-256h-256h-256h-256h-256zM512 256h256h256h256v256v256v256h-256h-256h-256v-256v-256v-256z" />
<glyph unicode="&#xf7;" />
<glyph unicode="&#xf8;" />
<glyph unicode="&#xf9;" />
<glyph unicode="&#xfa;" />
<glyph unicode="&#xfb;" />
<glyph unicode="&#xfc;" horiz-adv-x="2048" d="M0 0v256v256v256v256v256h256h256v-256v-256v-256v-256h256h256h256v256v256v256v256h256h256v-256v-256v-256v-256v-256h-256h-256h-256h-256h-256h-256h-256z" />
<glyph unicode="&#xfd;" />
<glyph unicode="&#xfe;" />
<glyph unicode="&#xff;" />
<glyph unicode="&#x152;" />
<glyph unicode="&#x153;" />
<glyph unicode="&#x178;" />
<glyph unicode="&#x2c6;" />
<glyph unicode="&#x2dc;" />
<glyph unicode="&#x2000;" horiz-adv-x="682" />
<glyph unicode="&#x2001;" horiz-adv-x="1365" />
<glyph unicode="&#x2002;" horiz-adv-x="682" />
<glyph unicode="&#x2003;" horiz-adv-x="1365" />
<glyph unicode="&#x2004;" horiz-adv-x="455" />
<glyph unicode="&#x2005;" horiz-adv-x="341" />
<glyph unicode="&#x2006;" horiz-adv-x="227" />
<glyph unicode="&#x2007;" horiz-adv-x="227" />
<glyph unicode="&#x2008;" horiz-adv-x="170" />
<glyph unicode="&#x2009;" horiz-adv-x="273" />
<glyph unicode="&#x200a;" horiz-adv-x="75" />
<glyph unicode="&#x2010;" horiz-adv-x="1280" d="M0 512v256h256h256h512v-256h-512h-256h-256z" />
<glyph unicode="&#x2011;" horiz-adv-x="1280" d="M0 512v256h256h256h512v-256h-512h-256h-256z" />
<glyph unicode="&#x2012;" horiz-adv-x="1280" d="M0 512v256h256h256h512v-256h-512h-256h-256z" />
<glyph unicode="&#x2013;" horiz-adv-x="1792" d="M0 512v256h256h256h256h256h256h256v-256h-256h-256h-256h-256h-256h-256z" />
<glyph unicode="&#x2014;" horiz-adv-x="1792" d="M0 512v256h256h256h256h256h256h256v-256h-256h-256h-256h-256h-256h-256z" />
<glyph unicode="&#x2018;" horiz-adv-x="768" d="M0 512v256v256v256h256h256v-256v-256v-256h-256h-256z" />
<glyph unicode="&#x2019;" horiz-adv-x="768" d="M0 512v256v256v256h256h256v-256v-256v-256h-256h-256z" />
<glyph unicode="&#x201a;" horiz-adv-x="768" d="M0 0v256v256h256h256v-256v-256v-256h-256h-256v256z" />
<glyph unicode="&#x201c;" horiz-adv-x="1536" d="M0 512v256v256v256h256h256v-256v-256v-256h-256h-256zM768 512v256v256v256h256h256v-256v-256v-256h-256h-256z" />
<glyph unicode="&#x201d;" horiz-adv-x="1536" d="M0 512v256v256v256h256h256v-256v-256v-256h-256h-256zM768 512v256v256v256h256h256v-256v-256v-256h-256h-256z" />
<glyph unicode="&#x201e;" horiz-adv-x="1536" d="M0 0v256v256h256h256v-256v-256v-256h-256h-256v256zM768 0v256v256h256h256v-256v-256v-256h-256h-256v256z" />
<glyph unicode="&#x2022;" d="M0 256v256v256v256h256h256h256v-256v-256v-256h-256h-256h-256z" />
<glyph unicode="&#x2026;" />
<glyph unicode="&#x202f;" horiz-adv-x="273" />
<glyph unicode="&#x2039;" />
<glyph unicode="&#x203a;" />
<glyph unicode="&#x205f;" horiz-adv-x="341" />
<glyph unicode="&#x20ac;" />
<glyph unicode="&#x2122;" />
<glyph unicode="&#x25fc;" horiz-adv-x="1280" d="M0 0v1280h1280v-1280h-1280z" />
<glyph unicode="&#xfb01;" />
<glyph unicode="&#xfb02;" />
</font>
</defs>
</svg>
